<svg width="274" height="27" viewBox="0 0 274 27" fill="none" xmlns="http://www.w3.org/2000/svg">
<path d="M21.2734 0.792969C23.6172 0.792969 25.2637 1.08594 26.2129 1.67188C27.1621 2.24609 27.9414 3.00781 28.5508 3.95703C29.1719 4.89453 29.459 6.3125 29.4121 8.21094C29.459 10.9883 28.8438 12.8516 27.5664 13.8008C28.8906 14.7383 29.5293 16.5312 29.4824 19.1797C29.5293 20.75 29.2949 22.0215 28.7793 22.9941C28.2637 23.9668 27.4609 24.7109 26.3711 25.2266C25.2812 25.7422 23.5703 26.0234 21.2383 26.0703L0.25 26C0.191406 26 0.162109 25.9707 0.162109 25.9121V0.880859C0.173828 0.822266 0.203125 0.792969 0.25 0.792969H21.2734ZM5.11914 21.043H21.5195C23.4531 21.043 24.4199 20.1934 24.4199 18.4941C24.4199 16.7949 23.4355 15.9219 21.4668 15.875H5.1543C5.0957 15.875 5.06641 15.8457 5.06641 15.7871V11.0059C5.07812 10.9473 5.10742 10.918 5.1543 10.918H21.5723C23.4121 10.918 24.332 10.0625 24.332 8.35156C24.3438 6.64063 23.4238 5.77344 21.5723 5.75H5.11914V21.043ZM36.0566 0.792969C36.1152 0.792969 36.1445 0.822266 36.1445 0.880859V25.9121C36.1445 25.9707 36.1152 26 36.0566 26H31.3281C31.2695 26 31.2402 25.9707 31.2402 25.9121V0.880859C31.252 0.822266 31.2812 0.792969 31.3281 0.792969H36.0566ZM67.1523 0.792969C67.2109 0.804688 67.2402 0.833984 67.2402 0.880859V5.66211C67.2402 5.7207 67.2109 5.75 67.1523 5.75H55.0586V25.9121C55.0586 25.9707 55.0293 26 54.9707 26H50.1895C50.1309 26 50.1016 25.9707 50.1016 25.9121V5.75H38.0078C37.9492 5.75 37.9199 5.7207 37.9199 5.66211V0.880859C37.9316 0.822266 37.9609 0.792969 38.0078 0.792969H67.1523Z" fill="white"/>
<path d="M95.0664 0.792969C98.2656 0.792969 101.23 2.13477 103.961 4.81836C106.152 7.43164 107.248 10.1211 107.248 12.8867V14.0293C107.248 16.5488 106.24 19.0918 104.225 21.6582C103.064 22.8652 102.045 23.7266 101.166 24.2422C99.0449 25.4141 97.0117 26 95.0664 26H78.0156C77.957 26 77.9277 25.9707 77.9277 25.9121V5.27539C77.9395 5.2168 77.9688 5.1875 78.0156 5.1875H82.7969C82.8555 5.19922 82.8848 5.22852 82.8848 5.27539V21.043H94.9434C97.334 21.043 99.3789 19.9062 101.078 17.6328C101.922 16.2734 102.344 14.8555 102.344 13.3789C102.344 10.707 101.119 8.52734 98.6699 6.83984C97.3926 6.11328 96.1504 5.75 94.9434 5.75H78.0156C77.957 5.75 77.9277 5.7207 77.9277 5.66211V0.880859C77.9395 0.822266 77.9688 0.792969 78.0156 0.792969H95.0664ZM138.238 0.792969C138.297 0.804688 138.326 0.833984 138.326 0.880859V5.66211C138.326 5.7207 138.297 5.75 138.238 5.75H121.363C118.902 5.75 116.816 6.93359 115.105 9.30078C114.344 10.6016 113.963 11.8848 113.963 13.1504V13.6426C113.963 15.8926 114.971 17.8496 116.986 19.5137C118.381 20.5332 119.828 21.043 121.328 21.043H138.238C138.297 21.0547 138.326 21.084 138.326 21.1309V25.9121C138.326 25.9707 138.297 26 138.238 26H121.188C118.316 26 115.598 24.8867 113.031 22.6602C111.648 21.2539 110.729 20.0293 110.271 18.9863C109.428 17.1699 109.006 15.4297 109.006 13.7656V13.0273C109.006 9.85156 110.289 6.94531 112.855 4.30859C115.445 1.96484 118.24 0.792969 121.24 0.792969H138.238ZM138.326 10.9004V15.7344H113.383V10.9004H138.326ZM162.918 0.792969C164.711 0.792969 166.381 1.625 167.928 3.28906C168.912 4.67188 169.404 5.96094 169.404 7.15625V10.7773C169.404 12.5938 168.514 14.2754 166.732 15.8223C165.49 16.7598 163.984 17.2285 162.215 17.2285H145.006C144.947 17.2285 144.918 17.1992 144.918 17.1406V12.3594C144.93 12.3008 144.959 12.2715 145.006 12.2715H162.268C163.252 12.2715 163.926 11.9199 164.289 11.2168C164.43 10.8887 164.5 9.69336 164.5 7.63086C164.5 6.75195 164.02 6.13672 163.059 5.78516C162.941 5.76172 162.824 5.75 162.707 5.75H145.041V25.9121C145.041 25.9707 145.012 26 144.953 26H140.172C140.113 26 140.084 25.9707 140.084 25.9121V0.880859C140.096 0.822266 140.125 0.792969 140.172 0.792969H162.918ZM191.764 21.043C194.084 21.043 196.088 19.9648 197.775 17.8086C198.713 16.4141 199.182 14.9492 199.182 13.4141C199.182 10.5312 197.805 8.25195 195.051 6.57617C193.902 6.02539 192.777 5.75 191.676 5.75H183.52C181.059 5.75 178.973 6.93359 177.262 9.30078C176.5 10.6016 176.119 11.8848 176.119 13.1504V13.6426C176.119 15.8926 177.127 17.8496 179.143 19.5137C180.525 20.5332 182.002 21.043 183.572 21.043H191.764ZM191.904 0.792969C194.541 0.792969 197.096 1.75977 199.568 3.69336C200.975 4.98242 201.824 5.96094 202.117 6.62891C203.43 8.71484 204.086 10.7715 204.086 12.7988V13.9941C204.086 16.7246 202.961 19.4141 200.711 22.0625C198.004 24.6875 195.068 26 191.904 26H183.256C180.607 26 177.994 24.9629 175.416 22.8887C174.115 21.5996 173.225 20.5039 172.744 19.6016C171.689 17.5625 171.162 15.6172 171.162 13.7656V13.0273C171.162 9.85156 172.445 6.94531 175.012 4.30859C177.602 1.96484 180.396 0.792969 183.396 0.792969H191.904ZM235.234 0.792969C235.293 0.804688 235.322 0.833984 235.322 0.880859V5.66211C235.322 5.7207 235.293 5.75 235.234 5.75H212.576C211.428 5.75 210.842 6.60547 210.818 8.31641C210.818 10.0625 211.434 10.9355 212.664 10.9355H227.307C229.428 10.9707 230.963 11.2988 231.912 11.9199C232.873 12.5293 233.682 13.4492 234.338 14.6797C234.994 15.8984 235.322 17.1641 235.322 18.4766V18.7754C235.322 20.2637 235.053 21.5059 234.514 22.502C233.986 23.4863 233.189 24.3184 232.123 24.998C231.068 25.666 229.504 26 227.43 26H206.037C205.979 26 205.949 25.9707 205.949 25.9121V21.1309C205.961 21.0723 205.99 21.043 206.037 21.043H228.221C229.639 21.043 230.354 20.2285 230.365 18.5996C230.365 16.8066 229.691 15.9102 228.344 15.9102L213.174 15.8926C211.053 15.8926 209.359 15.2891 208.094 14.082C206.605 12.6172 205.861 11.041 205.861 9.35352V8.79102C205.861 5.61523 206.975 3.25391 209.201 1.70703C210.338 1.09766 211.434 0.792969 212.488 0.792969H235.234ZM241.896 0.792969C241.955 0.792969 241.984 0.822266 241.984 0.880859V25.9121C241.984 25.9707 241.955 26 241.896 26H237.168C237.109 26 237.08 25.9707 237.08 25.9121V0.880859C237.092 0.822266 237.121 0.792969 237.168 0.792969H241.896ZM272.992 0.792969C273.051 0.804688 273.08 0.833984 273.08 0.880859V5.66211C273.08 5.7207 273.051 5.75 272.992 5.75H260.898V25.9121C260.898 25.9707 260.869 26 260.811 26H256.029C255.971 26 255.941 25.9707 255.941 25.9121V5.75H243.848C243.789 5.75 243.76 5.7207 243.76 5.66211V0.880859C243.771 0.822266 243.801 0.792969 243.848 0.792969H272.992Z" fill="#FFCC00"/>
</svg>
