<svg width="287" height="22" viewBox="0 0 287 22" fill="none" xmlns="http://www.w3.org/2000/svg">
<path d="M17.6154 0.00616071C19.5671 0.00616071 20.9382 0.250128 21.7287 0.738061C22.5191 1.21624 23.1681 1.85055 23.6755 2.641C24.1928 3.4217 24.4318 4.6025 24.3928 6.1834C24.4318 8.49621 23.9195 10.0478 22.8558 10.8383C23.9585 11.619 24.4904 13.1121 24.4514 15.3175C24.4904 16.6252 24.2952 17.684 23.8658 18.494C23.4365 19.3039 22.768 19.9236 21.8604 20.353C20.9529 20.7824 19.5281 21.0166 17.5861 21.0556L0.108346 20.9971C0.0595529 20.9971 0.0351562 20.9727 0.0351562 20.9239V0.0793508C0.0449149 0.0305574 0.0693116 0.00616071 0.108346 0.00616071H17.6154ZM4.16308 16.8692H17.8203C19.4305 16.8692 20.2356 16.1616 20.2356 14.7466C20.2356 13.3316 19.4159 12.6046 17.7764 12.5656H4.19235C4.14356 12.5656 4.11916 12.5412 4.11916 12.4924V8.51085C4.12892 8.46205 4.15332 8.43766 4.19235 8.43766H17.8643C19.3964 8.43766 20.1624 7.72527 20.1624 6.30051C20.1722 4.87574 19.4061 4.1536 17.8643 4.13408H4.16308V16.8692ZM29.926 0.00616071C29.9748 0.00616071 29.9992 0.0305574 29.9992 0.0793508V20.9239C29.9992 20.9727 29.9748 20.9971 29.926 20.9971H25.9884C25.9396 20.9971 25.9152 20.9727 25.9152 20.9239V0.0793508C25.9249 0.0305574 25.9493 0.00616071 25.9884 0.00616071H29.926ZM55.8206 0.00616071C55.8694 0.0159194 55.8938 0.0403161 55.8938 0.0793508V4.06089C55.8938 4.10968 55.8694 4.13408 55.8206 4.13408H45.7497V20.9239C45.7497 20.9727 45.7253 20.9971 45.6765 20.9971H41.6949C41.6461 20.9971 41.6217 20.9727 41.6217 20.9239V4.13408H31.5508C31.502 4.13408 31.4776 4.10968 31.4776 4.06089V0.0793508C31.4874 0.0305574 31.5118 0.00616071 31.5508 0.00616071H55.8206Z" fill="white"/>
<path d="M79.0658 0.00616071C81.7299 0.00616071 84.1988 1.12353 86.4726 3.35827C88.2975 5.53445 89.2099 7.77407 89.2099 10.0771V11.0286C89.2099 13.1267 88.3707 15.2443 86.6922 17.3815C85.7261 18.3866 84.8771 19.1039 84.1452 19.5333C82.3789 20.5091 80.6857 20.9971 79.0658 20.9971H64.8669C64.8181 20.9971 64.7937 20.9727 64.7937 20.9239V3.73885C64.8035 3.69006 64.8279 3.66566 64.8669 3.66566H68.8485C68.8972 3.67542 68.9216 3.69982 68.9216 3.73885V16.8692H78.9633C80.9541 16.8692 82.657 15.9226 84.072 14.0294C84.7746 12.8974 85.1259 11.7166 85.1259 10.487C85.1259 8.262 84.1061 6.44689 82.0666 5.04164C81.0029 4.4366 79.9685 4.13408 78.9633 4.13408H64.8669C64.8181 4.13408 64.7937 4.10968 64.7937 4.06089V0.0793508C64.8035 0.0305574 64.8279 0.00616071 64.8669 0.00616071H79.0658ZM115.017 0.00616071C115.066 0.0159194 115.09 0.0403161 115.09 0.0793508V4.06089C115.09 4.10968 115.066 4.13408 115.017 4.13408H100.964C98.9149 4.13408 97.1779 5.11971 95.7531 7.09096C95.1188 8.17417 94.8016 9.24275 94.8016 10.2967V10.7065C94.8016 12.5802 95.6409 14.2099 97.3194 15.5956C98.4807 16.4446 99.6859 16.8692 100.935 16.8692H115.017C115.066 16.8789 115.09 16.9033 115.09 16.9423V20.9239C115.09 20.9727 115.066 20.9971 115.017 20.9971H100.818C98.427 20.9971 96.163 20.07 94.0258 18.2158C92.8743 17.0448 92.1083 16.025 91.7277 15.1565C91.025 13.6439 90.6737 12.1947 90.6737 10.809V10.1942C90.6737 7.54962 91.7423 5.12947 93.8795 2.93376C96.0361 0.982028 98.3636 0.00616071 100.862 0.00616071H115.017ZM115.09 8.42302V12.4485H94.3186V8.42302H115.09ZM135.569 0.00616071C137.062 0.00616071 138.452 0.699027 139.74 2.08476C140.56 3.23628 140.97 4.30974 140.97 5.30512V8.32055C140.97 9.83315 140.228 11.2335 138.745 12.5217C137.711 13.3024 136.457 13.6927 134.983 13.6927H120.652C120.604 13.6927 120.579 13.6683 120.579 13.6195V9.63797C120.589 9.58918 120.613 9.56478 120.652 9.56478H135.027C135.847 9.56478 136.408 9.27202 136.71 8.6865C136.827 8.41326 136.886 7.41787 136.886 5.70035C136.886 4.96845 136.486 4.45612 135.686 4.16336C135.588 4.14384 135.49 4.13408 135.393 4.13408H120.682V20.9239C120.682 20.9727 120.657 20.9971 120.608 20.9971H116.627C116.578 20.9971 116.554 20.9727 116.554 20.9239V0.0793508C116.563 0.0305574 116.588 0.00616071 116.627 0.00616071H135.569ZM159.589 16.8692C161.522 16.8692 163.19 15.9714 164.596 14.1758C165.376 13.0145 165.767 11.7946 165.767 10.5163C165.767 8.11562 164.62 6.21756 162.327 4.82207C161.37 4.36341 160.434 4.13408 159.516 4.13408H152.724C150.675 4.13408 148.938 5.11971 147.513 7.09096C146.879 8.17417 146.562 9.24275 146.562 10.2967V10.7065C146.562 12.5802 147.401 14.2099 149.079 15.5956C150.231 16.4446 151.461 16.8692 152.768 16.8692H159.589ZM159.707 0.00616071C161.902 0.00616071 164.03 0.811251 166.089 2.42143C167.26 3.49489 167.967 4.30974 168.211 4.86598C169.304 6.60302 169.851 8.31567 169.851 10.0039V10.9993C169.851 13.2731 168.914 15.5127 167.04 17.7182C164.786 19.9041 162.341 20.9971 159.707 20.9971H152.505C150.299 20.9971 148.123 20.1334 145.976 18.4061C144.893 17.3327 144.151 16.4203 143.751 15.6688C142.873 13.9708 142.434 12.3509 142.434 10.809V10.1942C142.434 7.54962 143.502 5.12947 145.639 2.93376C147.796 0.982028 150.124 0.00616071 152.622 0.00616071H159.707ZM195.789 0.00616071C195.838 0.0159194 195.862 0.0403161 195.862 0.0793508V4.06089C195.862 4.10968 195.838 4.13408 195.789 4.13408H176.921C175.965 4.13408 175.477 4.84646 175.457 6.27123C175.457 7.72527 175.969 8.45229 176.994 8.45229H189.188C190.954 8.48157 192.232 8.75481 193.023 9.27202C193.823 9.77947 194.496 10.5455 195.043 11.5702C195.589 12.5851 195.862 13.639 195.862 14.732V14.9808C195.862 16.2202 195.638 17.2546 195.189 18.0841C194.75 18.9038 194.086 19.5967 193.198 20.1627C192.32 20.7189 191.017 20.9971 189.29 20.9971H171.476C171.427 20.9971 171.402 20.9727 171.402 20.9239V16.9423C171.412 16.8935 171.437 16.8692 171.476 16.8692H189.949C191.13 16.8692 191.725 16.1909 191.735 14.8345C191.735 13.3414 191.173 12.5949 190.051 12.5949L177.419 12.5802C175.652 12.5802 174.242 12.0776 173.188 11.0725C171.949 9.85266 171.329 8.54012 171.329 7.13487V6.66646C171.329 4.02186 172.256 2.05548 174.11 0.767337C175.057 0.259886 175.969 0.00616071 176.848 0.00616071H195.789ZM201.337 0.00616071C201.386 0.00616071 201.41 0.0305574 201.41 0.0793508V20.9239C201.41 20.9727 201.386 20.9971 201.337 20.9971H197.399C197.351 20.9971 197.326 20.9727 197.326 20.9239V0.0793508C197.336 0.0305574 197.36 0.00616071 197.399 0.00616071H201.337ZM227.232 0.00616071C227.281 0.0159194 227.305 0.0403161 227.305 0.0793508V4.06089C227.305 4.10968 227.281 4.13408 227.232 4.13408H217.161V20.9239C217.161 20.9727 217.136 20.9971 217.088 20.9971H213.106C213.057 20.9971 213.033 20.9727 213.033 20.9239V4.13408H202.962C202.913 4.13408 202.889 4.10968 202.889 4.06089V0.0793508C202.898 0.0305574 202.923 0.00616071 202.962 0.00616071H227.232Z" fill="#FFCC00"/>
<path d="M253.785 0.00616071C255.737 0.00616071 257.108 0.250128 257.898 0.738061C258.689 1.21624 259.338 1.85055 259.845 2.641C260.362 3.4217 260.602 4.6025 260.562 6.1834C260.602 8.49621 260.089 10.0478 259.025 10.8383C260.128 11.619 260.66 13.1121 260.621 15.3175C260.66 16.6252 260.465 17.684 260.036 18.494C259.606 19.3039 258.938 19.9236 258.03 20.353C257.123 20.7824 255.698 21.0166 253.756 21.0556L236.278 20.9971C236.229 20.9971 236.205 20.9727 236.205 20.9239V0.0793508C236.215 0.0305574 236.239 0.00616071 236.278 0.00616071H253.785ZM240.333 16.8692H253.99C255.6 16.8692 256.405 16.1616 256.405 14.7466C256.405 13.3316 255.586 12.6046 253.946 12.5656H240.362C240.313 12.5656 240.289 12.5412 240.289 12.4924V8.51085C240.299 8.46205 240.323 8.43766 240.362 8.43766H254.034C255.566 8.43766 256.332 7.72527 256.332 6.30051C256.342 4.87574 255.576 4.1536 254.034 4.13408H240.333V16.8692ZM276.357 0.00616071C279.021 0.00616071 281.49 1.12353 283.764 3.35827C285.589 5.53445 286.501 7.77407 286.501 10.0771V11.0286C286.501 13.1267 285.662 15.2443 283.983 17.3815C283.017 18.3866 282.168 19.1039 281.436 19.5333C279.67 20.5091 277.977 20.9971 276.357 20.9971H262.158C262.109 20.9971 262.085 20.9727 262.085 20.9239V3.73885C262.095 3.69006 262.119 3.66566 262.158 3.66566H266.14C266.188 3.67542 266.213 3.69982 266.213 3.73885V16.8692H276.254C278.245 16.8692 279.948 15.9226 281.363 14.0294C282.066 12.8974 282.417 11.7166 282.417 10.487C282.417 8.262 281.397 6.44689 279.358 5.04164C278.294 4.4366 277.26 4.13408 276.254 4.13408H262.158C262.109 4.13408 262.085 4.10968 262.085 4.06089V0.0793508C262.095 0.0305574 262.119 0.00616071 262.158 0.00616071H276.357Z" fill="#F68D29"/>
</svg>
