<svg width="164" height="165" viewBox="0 0 164 165" fill="none" xmlns="http://www.w3.org/2000/svg">
<g filter="url(#filter0_d_199_12837)">
<rect x="10" y="8" width="144" height="144" rx="7.27202" fill="#302A78"/>
</g>
<path d="M136.11 140H27.8848C24.6457 140 22 137.337 22 134.083V25.9226C22 22.6606 24.6457 20 27.8848 20H136.11C139.354 20 142 22.6606 142 25.9226V134.083C142 137.337 139.354 140 136.11 140Z" fill="#DF146E"/>
<path d="M102.674 76.0654L72.4484 71.1942L76.5386 89.2586L102.674 76.0654ZM103.899 74.5863L80.1338 41.1664L72.3713 69.5914L103.899 74.5863ZM70.8994 69.2032L45.9963 37L78.6083 40.9451L70.8994 69.2032ZM58.8174 55.856L45 42.6694H48.6317L58.8174 55.856ZM111.319 58.3502L105.472 74.4063L95.9888 61.1372L111.319 58.3502ZM80.226 89.0374L103.173 79.7113L104.146 76.7508L80.226 89.0374ZM61.0864 106L70.9186 71.0771L75.9023 93.8045L61.0864 106ZM112.72 58.4717L110.303 65.0997L119 64.9479L112.72 58.4717Z" fill="white"/>
<path d="M22 108H142V134C142 137.314 139.314 140 136 140H28C24.6863 140 22 137.314 22 134V108Z" fill="white"/>
<path d="M34.6164 123.002C35.1391 123.095 35.5824 123.371 35.9464 123.828C36.3104 124.285 36.4924 124.803 36.4924 125.382C36.4924 125.877 36.3617 126.325 36.1004 126.726C35.8484 127.118 35.4797 127.431 34.9944 127.664C34.5091 127.888 33.9444 128 33.3004 128H29.4084V118.27H33.1184C33.7811 118.27 34.3504 118.382 34.8264 118.606C35.3024 118.83 35.6617 119.133 35.9044 119.516C36.1471 119.889 36.2684 120.309 36.2684 120.776C36.2684 121.336 36.1191 121.803 35.8204 122.176C35.5217 122.549 35.1204 122.825 34.6164 123.002ZM31.0044 122.358H32.9784C33.5011 122.358 33.9071 122.241 34.1964 122.008C34.4951 121.765 34.6444 121.42 34.6444 120.972C34.6444 120.533 34.4951 120.193 34.1964 119.95C33.9071 119.698 33.5011 119.572 32.9784 119.572H31.0044V122.358ZM33.1604 126.698C33.7017 126.698 34.1264 126.567 34.4344 126.306C34.7424 126.045 34.8964 125.681 34.8964 125.214C34.8964 124.738 34.7331 124.36 34.4064 124.08C34.0797 123.8 33.6457 123.66 33.1044 123.66H31.0044V126.698H33.1604ZM41.2788 124.15L44.8348 128H42.6788L39.8228 124.682V128H38.2268V117.64H39.8228V123.66L42.6228 120.286H44.8348L41.2788 124.15ZM45.4467 124.108C45.4467 123.333 45.6054 122.647 45.9227 122.05C46.2494 121.453 46.688 120.991 47.2387 120.664C47.7987 120.328 48.4147 120.16 49.0867 120.16C49.6934 120.16 50.2207 120.281 50.6687 120.524C51.126 120.757 51.49 121.051 51.7607 121.406V120.286H53.3707V128H51.7607V126.852C51.49 127.216 51.1214 127.519 50.6547 127.762C50.188 128.005 49.656 128.126 49.0587 128.126C48.396 128.126 47.7894 127.958 47.2387 127.622C46.688 127.277 46.2494 126.801 45.9227 126.194C45.6054 125.578 45.4467 124.883 45.4467 124.108ZM51.7607 124.136C51.7607 123.604 51.6487 123.142 51.4247 122.75C51.21 122.358 50.9254 122.059 50.5707 121.854C50.216 121.649 49.8334 121.546 49.4227 121.546C49.012 121.546 48.6294 121.649 48.2747 121.854C47.92 122.05 47.6307 122.344 47.4067 122.736C47.192 123.119 47.0847 123.576 47.0847 124.108C47.0847 124.64 47.192 125.107 47.4067 125.508C47.6307 125.909 47.92 126.217 48.2747 126.432C48.6387 126.637 49.0214 126.74 49.4227 126.74C49.8334 126.74 50.216 126.637 50.5707 126.432C50.9254 126.227 51.21 125.928 51.4247 125.536C51.6487 125.135 51.7607 124.668 51.7607 124.136ZM58.267 128.126C57.6603 128.126 57.1143 128.019 56.629 127.804C56.153 127.58 55.775 127.281 55.495 126.908C55.215 126.525 55.0657 126.101 55.047 125.634H56.699C56.727 125.961 56.881 126.236 57.161 126.46C57.4503 126.675 57.8097 126.782 58.239 126.782C58.687 126.782 59.0323 126.698 59.275 126.53C59.527 126.353 59.653 126.129 59.653 125.858C59.653 125.569 59.513 125.354 59.233 125.214C58.9623 125.074 58.5283 124.92 57.931 124.752C57.3523 124.593 56.881 124.439 56.517 124.29C56.153 124.141 55.8357 123.912 55.565 123.604C55.3037 123.296 55.173 122.89 55.173 122.386C55.173 121.975 55.2943 121.602 55.537 121.266C55.7797 120.921 56.125 120.65 56.573 120.454C57.0303 120.258 57.553 120.16 58.141 120.16C59.0183 120.16 59.723 120.384 60.255 120.832C60.7963 121.271 61.0857 121.873 61.123 122.638H59.527C59.499 122.293 59.359 122.017 59.107 121.812C58.855 121.607 58.5143 121.504 58.085 121.504C57.665 121.504 57.343 121.583 57.119 121.742C56.895 121.901 56.783 122.111 56.783 122.372C56.783 122.577 56.8577 122.75 57.007 122.89C57.1563 123.03 57.3383 123.142 57.553 123.226C57.7677 123.301 58.085 123.399 58.505 123.52C59.065 123.669 59.5223 123.823 59.877 123.982C60.241 124.131 60.5537 124.355 60.815 124.654C61.0763 124.953 61.2117 125.349 61.221 125.844C61.221 126.283 61.0997 126.675 60.857 127.02C60.6143 127.365 60.269 127.636 59.821 127.832C59.3823 128.028 58.8643 128.126 58.267 128.126ZM66.9355 120.16C67.5235 120.16 68.0462 120.286 68.5035 120.538C68.9702 120.79 69.3342 121.163 69.5955 121.658C69.8662 122.153 70.0015 122.75 70.0015 123.45V128H68.4195V123.688C68.4195 122.997 68.2468 122.47 67.9015 122.106C67.5562 121.733 67.0848 121.546 66.4875 121.546C65.8902 121.546 65.4142 121.733 65.0595 122.106C64.7142 122.47 64.5415 122.997 64.5415 123.688V128H62.9455V117.64H64.5415V121.182C64.8122 120.855 65.1528 120.603 65.5635 120.426C65.9835 120.249 66.4408 120.16 66.9355 120.16ZM82.478 121.168C82.478 121.663 82.3614 122.129 82.128 122.568C81.8947 123.007 81.5214 123.366 81.008 123.646C80.4947 123.917 79.8367 124.052 79.034 124.052H77.27V128H75.674V118.27H79.034C79.7807 118.27 80.4107 118.401 80.924 118.662C81.4467 118.914 81.834 119.259 82.086 119.698C82.3474 120.137 82.478 120.627 82.478 121.168ZM79.034 122.75C79.6407 122.75 80.0934 122.615 80.392 122.344C80.6907 122.064 80.84 121.672 80.84 121.168C80.84 120.104 80.238 119.572 79.034 119.572H77.27V122.75H79.034ZM91.0702 123.954C91.0702 124.243 91.0515 124.505 91.0142 124.738H85.1202C85.1669 125.354 85.3955 125.849 85.8062 126.222C86.2169 126.595 86.7209 126.782 87.3182 126.782C88.1769 126.782 88.7835 126.423 89.1382 125.704H90.8602C90.6269 126.413 90.2022 126.997 89.5862 127.454C88.9795 127.902 88.2235 128.126 87.3182 128.126C86.5809 128.126 85.9182 127.963 85.3302 127.636C84.7515 127.3 84.2942 126.833 83.9582 126.236C83.6315 125.629 83.4682 124.929 83.4682 124.136C83.4682 123.343 83.6269 122.647 83.9442 122.05C84.2709 121.443 84.7235 120.977 85.3022 120.65C85.8902 120.323 86.5622 120.16 87.3182 120.16C88.0462 120.16 88.6949 120.319 89.2642 120.636C89.8335 120.953 90.2769 121.401 90.5942 121.98C90.9115 122.549 91.0702 123.207 91.0702 123.954ZM89.4042 123.45C89.3949 122.862 89.1849 122.391 88.7742 122.036C88.3635 121.681 87.8549 121.504 87.2482 121.504C86.6975 121.504 86.2262 121.681 85.8342 122.036C85.4422 122.381 85.2089 122.853 85.1342 123.45H89.4042ZM94.2368 121.406C94.4702 121.014 94.7782 120.711 95.1608 120.496C95.5528 120.272 96.0148 120.16 96.5468 120.16V121.812H96.1408C95.5155 121.812 95.0395 121.971 94.7128 122.288C94.3955 122.605 94.2368 123.156 94.2368 123.94V128H92.6408V120.286H94.2368V121.406ZM100.814 128.126C100.207 128.126 99.6612 128.019 99.1759 127.804C98.6999 127.58 98.3219 127.281 98.0419 126.908C97.7619 126.525 97.6125 126.101 97.5939 125.634H99.2459C99.2739 125.961 99.4279 126.236 99.7079 126.46C99.9972 126.675 100.357 126.782 100.786 126.782C101.234 126.782 101.579 126.698 101.822 126.53C102.074 126.353 102.2 126.129 102.2 125.858C102.2 125.569 102.06 125.354 101.78 125.214C101.509 125.074 101.075 124.92 100.478 124.752C99.8992 124.593 99.4279 124.439 99.0639 124.29C98.6999 124.141 98.3825 123.912 98.1119 123.604C97.8505 123.296 97.7199 122.89 97.7199 122.386C97.7199 121.975 97.8412 121.602 98.0839 121.266C98.3265 120.921 98.6719 120.65 99.1199 120.454C99.5772 120.258 100.1 120.16 100.688 120.16C101.565 120.16 102.27 120.384 102.802 120.832C103.343 121.271 103.633 121.873 103.67 122.638H102.074C102.046 122.293 101.906 122.017 101.654 121.812C101.402 121.607 101.061 121.504 100.632 121.504C100.212 121.504 99.8899 121.583 99.6659 121.742C99.4419 121.901 99.3299 122.111 99.3299 122.372C99.3299 122.577 99.4045 122.75 99.5539 122.89C99.7032 123.03 99.8852 123.142 100.1 123.226C100.315 123.301 100.632 123.399 101.052 123.52C101.612 123.669 102.069 123.823 102.424 123.982C102.788 124.131 103.101 124.355 103.362 124.654C103.623 124.953 103.759 125.349 103.768 125.844C103.768 126.283 103.647 126.675 103.404 127.02C103.161 127.365 102.816 127.636 102.368 127.832C101.929 128.028 101.411 128.126 100.814 128.126ZM108.838 128.126C108.11 128.126 107.452 127.963 106.864 127.636C106.276 127.3 105.814 126.833 105.478 126.236C105.142 125.629 104.974 124.929 104.974 124.136C104.974 123.352 105.147 122.657 105.492 122.05C105.838 121.443 106.309 120.977 106.906 120.65C107.504 120.323 108.171 120.16 108.908 120.16C109.646 120.16 110.313 120.323 110.91 120.65C111.508 120.977 111.979 121.443 112.324 122.05C112.67 122.657 112.842 123.352 112.842 124.136C112.842 124.92 112.665 125.615 112.31 126.222C111.956 126.829 111.47 127.3 110.854 127.636C110.248 127.963 109.576 128.126 108.838 128.126ZM108.838 126.74C109.249 126.74 109.632 126.642 109.986 126.446C110.35 126.25 110.644 125.956 110.868 125.564C111.092 125.172 111.204 124.696 111.204 124.136C111.204 123.576 111.097 123.105 110.882 122.722C110.668 122.33 110.383 122.036 110.028 121.84C109.674 121.644 109.291 121.546 108.88 121.546C108.47 121.546 108.087 121.644 107.732 121.84C107.387 122.036 107.112 122.33 106.906 122.722C106.701 123.105 106.598 123.576 106.598 124.136C106.598 124.967 106.808 125.611 107.228 126.068C107.658 126.516 108.194 126.74 108.838 126.74ZM118.312 120.16C118.919 120.16 119.46 120.286 119.936 120.538C120.421 120.79 120.799 121.163 121.07 121.658C121.341 122.153 121.476 122.75 121.476 123.45V128H119.894V123.688C119.894 122.997 119.721 122.47 119.376 122.106C119.031 121.733 118.559 121.546 117.962 121.546C117.365 121.546 116.889 121.733 116.534 122.106C116.189 122.47 116.016 122.997 116.016 123.688V128H114.42V120.286H116.016V121.168C116.277 120.851 116.609 120.603 117.01 120.426C117.421 120.249 117.855 120.16 118.312 120.16ZM122.98 124.108C122.98 123.333 123.139 122.647 123.456 122.05C123.783 121.453 124.221 120.991 124.772 120.664C125.332 120.328 125.948 120.16 126.62 120.16C127.227 120.16 127.754 120.281 128.202 120.524C128.659 120.757 129.023 121.051 129.294 121.406V120.286H130.904V128H129.294V126.852C129.023 127.216 128.655 127.519 128.188 127.762C127.721 128.005 127.189 128.126 126.592 128.126C125.929 128.126 125.323 127.958 124.772 127.622C124.221 127.277 123.783 126.801 123.456 126.194C123.139 125.578 122.98 124.883 122.98 124.108ZM129.294 124.136C129.294 123.604 129.182 123.142 128.958 122.75C128.743 122.358 128.459 122.059 128.104 121.854C127.749 121.649 127.367 121.546 126.956 121.546C126.545 121.546 126.163 121.649 125.808 121.854C125.453 122.05 125.164 122.344 124.94 122.736C124.725 123.119 124.618 123.576 124.618 124.108C124.618 124.64 124.725 125.107 124.94 125.508C125.164 125.909 125.453 126.217 125.808 126.432C126.172 126.637 126.555 126.74 126.956 126.74C127.367 126.74 127.749 126.637 128.104 126.432C128.459 126.227 128.743 125.928 128.958 125.536C129.182 125.135 129.294 124.668 129.294 124.136ZM134.596 117.64V128H133V117.64H134.596Z" fill="#DF146E"/>
<defs>
<filter id="filter0_d_199_12837" x="0.303971" y="0.727978" width="163.392" height="163.392" filterUnits="userSpaceOnUse" color-interpolation-filters="sRGB">
<feFlood flood-opacity="0" result="BackgroundImageFix"/>
<feColorMatrix in="SourceAlpha" type="matrix" values="0 0 0 0 0 0 0 0 0 0 0 0 0 0 0 0 0 0 127 0" result="hardAlpha"/>
<feOffset dy="2.42401"/>
<feGaussianBlur stdDeviation="4.84801"/>
<feComposite in2="hardAlpha" operator="out"/>
<feColorMatrix type="matrix" values="0 0 0 0 0 0 0 0 0 0 0 0 0 0 0 0 0 0 0.12 0"/>
<feBlend mode="normal" in2="BackgroundImageFix" result="effect1_dropShadow_199_12837"/>
<feBlend mode="normal" in="SourceGraphic" in2="effect1_dropShadow_199_12837" result="shape"/>
</filter>
</defs>
</svg>
