<svg width="60" height="60" viewBox="0 0 60 60" fill="none" xmlns="http://www.w3.org/2000/svg">
<path d="M30 58.125C45.533 58.125 58.125 45.533 58.125 30C58.125 14.467 45.533 1.875 30 1.875C14.467 1.875 1.875 14.467 1.875 30C1.875 45.533 14.467 58.125 30 58.125Z" fill="#75A843"/>
<path d="M30 58.125C45.533 58.125 58.125 45.533 58.125 30C58.125 14.467 45.533 1.875 30 1.875C14.467 1.875 1.875 14.467 1.875 30C1.875 45.533 14.467 58.125 30 58.125Z" fill="#699635"/>
<path d="M24.375 43.2187C31.6755 43.2187 37.5937 37.3005 37.5937 30C37.5937 22.6995 31.6755 16.7812 24.375 16.7812C17.0745 16.7812 11.1562 22.6995 11.1562 30C11.1562 37.3005 17.0745 43.2187 24.375 43.2187Z" fill="#ED4C5C"/>
</svg>
