<svg width="60" height="60" viewBox="0 0 60 60" fill="none" xmlns="http://www.w3.org/2000/svg">
<path d="M1.875 30C1.875 35.5312 3.46875 40.6875 6.1875 45H53.7188C56.4375 40.6875 58.0312 35.5312 58.0312 30C58.0312 24.4688 56.4375 19.3125 53.7188 15H6.1875C3.46875 19.3125 1.875 24.4688 1.875 30Z" fill="#F9F9F9"/>
<path d="M53.8125 15C48.8438 7.125 40.0312 1.875 30 1.875C19.9687 1.875 11.1562 7.125 6.1875 15H53.8125ZM6.1875 45C11.1562 52.875 19.9687 58.125 30 58.125C40.0312 58.125 48.8438 52.875 53.8125 45H6.1875Z" fill="#B4D7EE"/>
<path d="M42.8438 29.8125L35.1563 29.5312V29.4375C36.375 29.25 37.3125 28.5 38.625 28.5938C40.2188 28.7812 41.1563 27.8438 41.7188 27.6562C42.375 27.4688 42.75 27.8438 42.75 27.6562C42.8438 27.4688 42.375 27.0938 41.4375 27.1875C40.5938 27.2812 40.3125 28.0313 38.3438 27.8438C36.6563 27.75 36.0938 28.4062 34.875 28.4062V28.3125L41.8125 25.125C41.8125 25.125 42 25.0312 42 24.8438C41.9063 24.6562 41.7188 24.75 41.7188 24.75L34.6875 27.5625V27.4687C35.7188 26.8125 36.2812 25.7812 37.5938 25.4062C39.0938 24.9375 39.6563 23.8125 40.125 23.3437C40.5938 22.875 41.1563 23.1562 41.1563 22.9688C41.1563 22.7812 40.5938 22.5938 39.8438 23.0625C39.0938 23.5313 39.0938 24.2812 37.2188 24.8438C35.625 25.3125 35.3438 26.1562 34.2188 26.7188L34.125 26.625L39.375 21C39.375 21 39.5625 20.8125 39.4688 20.7188C39.375 20.625 39.1875 20.8125 39.1875 20.8125L33.5625 26.0625L33.4688 25.9688C34.2188 24.9375 34.3125 23.8125 35.3438 22.9688C36.5625 21.9375 36.5625 20.7188 36.8438 20.1562C37.125 19.5938 37.6875 19.5938 37.5938 19.4063C37.5 19.2188 36.9375 19.3125 36.375 19.9687C35.8125 20.7187 36.0938 21.375 34.6875 22.5938C33.4688 23.625 33.4688 24.5625 32.7188 25.4062C32.7188 25.4062 32.625 25.4062 32.625 25.3125L35.25 18.0937C35.25 18.0937 35.3438 17.9062 35.1563 17.8125C34.9688 17.7188 34.875 18 34.875 18L31.6875 24.9375H31.5938C31.875 23.7188 31.5938 22.5937 32.1563 21.4687C32.9062 20.0625 32.4375 18.8438 32.4375 18.2812C32.5312 17.625 33 17.4375 32.9062 17.3438C32.8125 17.1562 32.25 17.5313 31.9688 18.375C31.7812 19.2188 32.25 19.7812 31.4063 21.4687C30.6563 22.9687 31.0313 23.7188 30.6563 24.8438H30.5625L30.2813 17.1562C30.2813 17.1562 30.2812 16.875 30.0938 16.875C29.9062 16.875 29.9063 17.1562 29.9063 17.1562L29.625 24.8438H29.5313C29.3438 23.625 28.5938 22.6875 28.6875 21.375C28.875 19.7812 27.9375 18.8438 27.75 18.2812C27.5625 17.7188 27.9375 17.25 27.75 17.25C27.5625 17.1562 27.1875 17.625 27.2813 18.5625C27.375 19.4062 28.125 19.6875 27.9375 21.6563C27.8438 23.3438 28.5 23.9062 28.5 25.125H28.4062L25.2188 18.1875C25.2188 18.1875 25.125 18 24.9375 18C24.75 18.0938 24.8438 18.2812 24.8438 18.2812L27.4688 25.5H27.375C26.7188 24.4688 25.6875 23.9063 25.3125 22.5938C24.8438 21.0938 23.7188 20.5312 23.25 20.0625C22.7812 19.5937 23.0625 19.0312 22.875 19.0312C22.6875 19.0312 22.5 19.5938 22.9688 20.3438C23.4375 21.0938 24.1875 21.0938 24.75 22.9688C25.2188 24.5625 26.0625 24.8438 26.625 25.9688L26.5312 26.0625L20.9062 20.8125C20.9062 20.8125 20.7188 20.625 20.625 20.7188C20.5313 20.8125 20.7188 21 20.7188 21L25.9688 26.625L25.875 26.7188C24.8438 25.9688 23.7188 25.875 22.875 24.8438C21.8438 23.625 20.625 23.625 20.0625 23.3437C19.5 23.0625 19.5 22.5 19.3125 22.5938C19.125 22.6875 19.2188 23.25 19.875 23.8125C20.625 24.375 21.2813 24.0938 22.5 25.5C23.5313 26.7188 24.4688 26.7187 25.3125 27.4687C25.3125 27.4687 25.3125 27.5625 25.2188 27.5625L18 24.9375C18 24.9375 17.8125 24.8438 17.7188 25.0313C17.625 25.2188 17.9063 25.3125 17.9063 25.3125L24.8438 28.5V28.5938C23.625 28.3125 22.5 28.5938 21.375 28.0312C19.9687 27.2812 18.75 27.75 18.1875 27.75C17.5313 27.6562 17.3438 27.1875 17.25 27.2812C17.0625 27.375 17.4375 27.9375 18.2813 28.2188C19.125 28.4062 19.6875 27.9375 21.375 28.7813C22.875 29.5313 23.625 29.1562 24.75 29.5312V29.625L17.0625 29.9062C17.0625 29.9062 16.7812 29.9062 16.7812 30.0937C16.7812 30.2812 17.0625 30.2812 17.0625 30.2812L24.75 30.5625V30.6563C23.5313 30.8438 22.5938 31.5937 21.2813 31.5C19.6875 31.3125 18.75 32.25 18.1875 32.4375C17.5313 32.625 17.1562 32.25 17.1562 32.4375C17.0625 32.625 17.5313 33 18.4688 32.9062C19.4063 32.8125 19.5938 32.1563 21.5625 32.25C23.25 32.3438 23.8125 31.6875 25.0313 31.6875V31.7813L18.0937 34.9688C18.0937 34.9688 17.9063 35.0625 17.9063 35.25C17.9063 35.4375 18.1875 35.3438 18.1875 35.3438L25.4063 32.7188V32.8125C24.375 33.4688 23.8125 34.5 22.5 34.875C21 35.3438 20.4375 36.4688 19.9687 36.9375C19.5 37.4063 18.9375 37.125 18.9375 37.3125C18.9375 37.5 19.5 37.6875 20.25 37.2188C21 36.75 21 36 22.875 35.4375C24.4688 34.9688 24.75 34.125 25.875 33.5625L25.9688 33.6563L20.7188 39.2813C20.7188 39.2813 20.5313 39.4688 20.625 39.5625C20.7188 39.6562 20.9062 39.4687 20.9062 39.4687L26.5312 34.2188L26.625 34.3125C25.875 35.3437 25.7813 36.4688 24.75 37.3125C23.5313 38.3438 23.5312 39.5625 23.25 40.125C22.9688 40.6875 22.4063 40.6875 22.5 40.875C22.5938 41.0625 23.1562 40.9688 23.7188 40.3125C24.2812 39.6562 24 38.9062 25.4063 37.6875C26.625 36.6562 26.625 35.7188 27.375 34.875C27.375 34.875 27.4688 34.875 27.4688 34.9688L24.8438 42.1875C24.8438 42.1875 24.75 42.375 24.9375 42.4688C25.125 42.5625 25.2188 42.2812 25.2188 42.2812L28.4062 35.3438H28.5C28.2188 36.5625 28.5 37.6875 27.9375 38.8125C27.1875 40.2188 27.6563 41.4375 27.5625 42C27.4688 42.6562 27 42.8438 27.0938 42.9375C27.1875 43.125 27.75 42.75 28.0313 41.9062C28.2188 41.0625 27.75 40.5938 28.5938 38.8125C29.3438 37.3125 28.9688 36.5625 29.3438 35.4375H29.4375L29.7188 43.125C29.7188 43.125 29.7188 43.4062 29.9063 43.4062C30.0938 43.4062 30.0938 43.125 30.0938 43.125L30.375 35.4375H30.4688C30.6563 36.6562 31.4063 37.5938 31.3125 38.9062C31.125 40.5 32.0625 41.4375 32.25 42C32.4375 42.6562 32.0625 43.0313 32.25 43.0313C32.4375 43.125 32.8125 42.6562 32.7188 41.7188C32.625 40.875 31.875 40.5938 32.0625 38.625C32.1563 36.9375 31.5 36.375 31.5 35.1562H31.5938L34.7812 42.0938C34.7812 42.0938 34.875 42.2812 35.0625 42.2812C35.25 42.1875 35.1563 42 35.1563 42L32.4375 34.6875H32.5313C33.1875 35.7188 34.2188 36.2812 34.5938 37.5937C35.0625 39.0937 36.1875 39.6562 36.6562 40.125C37.125 40.5938 36.8438 41.1563 37.0313 41.1563C37.2188 41.1563 37.4063 40.5938 36.9375 39.8438C36.4688 39.0938 35.7188 39.0938 35.1563 37.2188C34.6875 35.625 33.8438 35.3438 33.2813 34.2188L33.375 34.125L39 39.375C39 39.375 39.1875 39.5625 39.2813 39.4687C39.375 39.375 39.1875 39.1875 39.1875 39.1875L33.9375 33.5625L34.0312 33.4688C35.0625 34.2188 36.1875 34.3125 37.0313 35.3438C38.0625 36.5625 39.2813 36.5625 39.8438 36.8438C40.4063 37.125 40.4063 37.6875 40.5938 37.5937C40.7813 37.5 40.6875 36.9375 40.0313 36.375C39.2813 35.8125 38.625 36.0938 37.4063 34.6875C36.375 33.4688 35.4375 33.4688 34.5938 32.625C34.5938 32.625 34.5938 32.5313 34.6875 32.5313L41.9063 35.1562C41.9063 35.1562 42.0938 35.25 42.1875 35.0625C42.2813 34.875 42 34.7812 42 34.7812L35.0625 31.5938V31.5C36.2813 31.7812 37.4062 31.5 38.5312 32.0625C39.9375 32.8125 41.1563 32.3438 41.7188 32.3438C42.375 32.4375 42.5625 32.9062 42.6563 32.8125C42.8438 32.7188 42.4688 32.1562 41.625 31.875C40.7813 31.6875 40.2188 32.1563 38.5312 31.3125C37.0312 30.5625 36.2813 30.9375 35.1563 30.5625V30.4688L42.8438 30.1875C42.8438 30.1875 43.125 30.1875 43.125 30C43.125 29.8125 42.8438 29.8125 42.8438 29.8125Z" fill="#F6B40E"/>
<path d="M32.8125 29.3438C32.5312 29.0625 32.1562 28.875 31.7812 28.875C31.4062 28.875 31.125 29.0625 30.8438 29.3438C31.3125 29.7188 32.1562 29.7188 32.8125 29.3438ZM32.5312 29.25C32.3437 29.4375 32.1562 29.5313 31.9687 29.5313C32.0625 29.4375 32.1562 29.3438 32.1562 29.25C32.1562 29.1563 32.0625 29.0625 31.9687 28.9688C32.25 29.0625 32.4375 29.1563 32.5312 29.25ZM31.5 28.9688C31.4062 29.0625 31.4062 29.1563 31.4062 29.25C31.4062 29.3438 31.5 29.5313 31.5937 29.5313C31.4062 29.5313 31.2187 29.4375 31.0312 29.25C31.2187 29.1563 31.3125 29.0625 31.5 28.9688Z" fill="#85340A"/>
<path d="M31.875 28.5938C31.3125 28.5938 31.2187 28.6875 31.0312 28.875C30.75 29.0625 30.6562 29.0625 30.6562 29.0625C30.6562 29.0625 30.6562 29.25 30.75 29.1563C30.8437 29.1563 31.0312 29.0625 31.2187 28.875C31.5 28.6875 31.6875 28.6875 31.9687 28.6875C32.7187 28.6875 33.0938 29.25 33.1875 29.25C33.2813 29.25 32.625 28.5938 31.875 28.5938Z" fill="#85340A"/>
<path d="M30.2814 28.5C30.1876 28.6875 30.1876 28.7813 30.1876 28.9688C30.0939 29.5313 30.1876 30.1875 30.5626 30.8438C30.5626 30.8438 30.6564 30.75 30.7501 30.75C30.3751 30.2813 30.2814 29.7188 30.2814 29.25C30.2814 28.9688 30.4689 28.7813 30.5626 28.5938C31.2189 28.0313 32.3439 28.125 33.2814 28.875C32.4376 27.6563 31.2189 27.75 30.2814 28.5Z" fill="#85340A"/>
<path d="M31.2187 29.7188C30.9375 29.5313 30.8437 29.4375 30.75 29.4375C30.6562 29.4375 30.6562 29.5313 31.0312 29.7188C31.4062 29.9063 32.1562 30 32.8125 29.4375C32.0625 29.8125 31.5 29.8125 31.2187 29.7188ZM30.75 31.2187C30.6562 31.2187 30.5625 31.125 30.4687 31.0312C30.4687 31.125 30.2812 31.3125 30 31.3125C29.7187 31.3125 29.5312 31.0312 29.5312 31.0312C29.5312 31.125 29.4375 31.2187 29.25 31.2187C29.1563 31.2187 28.9687 31.125 28.9687 30.9375C28.9687 30.8438 29.0625 30.75 29.1563 30.75C28.9688 30.75 28.875 30.9375 28.875 31.125C28.875 31.3125 29.0625 31.5 29.25 31.5C29.3438 31.5 29.4375 31.4063 29.5312 31.3125C29.625 31.4063 29.9062 31.4063 30 31.4063H30.0937C30.1875 31.4063 30.375 31.4063 30.5625 31.3125C30.6562 31.4063 30.75 31.5 30.8438 31.5C31.0313 31.5 31.2187 31.3125 31.2187 31.125C31.2187 30.9375 31.125 30.8437 30.9375 30.75C31.0312 30.75 31.125 30.8438 31.125 30.9375C31.0313 31.125 30.9375 31.2187 30.75 31.2187ZM30 32.0625C30.1875 32.0625 30.375 31.875 30.6563 32.0625C30.9375 32.25 31.125 32.3437 31.3125 32.4375C30.9375 32.1562 30.75 31.875 30.375 31.875C30.2813 31.875 30.0937 31.875 30 31.9687C29.8125 31.875 29.7188 31.875 29.625 31.875C29.25 31.875 29.0625 32.25 28.6875 32.4375C28.875 32.3437 29.0625 32.1563 29.3437 32.0625C29.625 31.9688 29.8125 32.0625 30 32.0625Z" fill="#85340A"/>
<path d="M30 32.3438C29.8125 32.3438 29.7187 32.25 29.4375 32.3438C29.25 32.3438 29.0625 32.3438 28.7813 32.4375H28.6875C29.5313 32.5313 29.1562 33 30 33C30.8438 33 30.4688 32.5313 31.3125 32.4375H31.125C30.375 32.1563 30.2812 32.3438 30 32.3438ZM30 32.8125C29.3438 32.8125 29.5313 32.3438 28.7813 32.3438C29.5313 32.1563 29.625 32.4375 30 32.4375C30.2812 32.4375 30.4687 32.25 31.2187 32.3438C30.4687 32.4375 30.6562 32.8125 30 32.8125ZM30 33C29.625 33 29.25 33.2813 29.25 33.75C29.3438 33.375 29.625 33.1875 30 33.1875C30.375 33.1875 30.6562 33.4688 30.75 33.75C30.75 33.2813 30.375 33 30 33ZM29.4375 28.5938C29.625 28.7813 29.7188 29.0625 29.7188 29.25C29.8125 29.7188 29.625 30.1875 29.25 30.75C29.25 30.75 29.3437 30.75 29.4375 30.8438C29.7187 30.1875 29.9062 29.625 29.8125 28.9688C29.8125 28.7813 29.7188 28.6875 29.7188 28.5C28.875 27.75 27.6562 27.6563 26.7188 28.875C27.6562 28.0313 28.875 27.9375 29.4375 28.5938Z" fill="#85340A"/>
<path d="M28.8751 28.9687C29.1564 29.1562 29.2501 29.25 29.3439 29.25C29.4376 29.25 29.4376 29.1562 29.4376 29.1562C29.4376 29.1562 29.2501 29.1562 29.0626 28.9687C28.7814 28.7812 28.6876 28.6875 28.2189 28.6875C27.3751 28.6875 26.9064 29.3437 27.0001 29.3437C27.0939 29.3437 27.4689 28.7813 28.2189 28.7813C28.4064 28.7813 28.6876 28.7812 28.8751 28.9687Z" fill="#85340A"/>
<path d="M27.2812 29.3438C27.4688 29.5312 27.8438 29.625 28.2188 29.625C28.5 29.625 28.875 29.5312 29.1562 29.3438C28.875 29.0625 28.5 28.875 28.125 28.875C27.8437 28.875 27.4688 29.0625 27.2812 29.3438ZM27.4687 29.3438C27.6562 29.1562 27.8437 28.9688 28.0312 28.9688C27.9375 29.0625 27.8438 29.1563 27.8438 29.25C27.8438 29.4375 27.9375 29.5313 28.0312 29.5313C27.8437 29.625 27.5625 29.5312 27.4687 29.3438ZM28.875 29.25C28.7812 29.3438 28.5937 29.4375 28.4062 29.5313C28.5 29.4375 28.5 29.3438 28.5 29.25C28.5 29.1563 28.4062 29.0625 28.4062 28.9688C28.6875 29.0625 28.875 29.1563 28.875 29.25Z" fill="#85340A"/>
<path d="M29.3437 29.4375C29.25 29.4375 29.1562 29.5313 28.875 29.7188C28.5937 29.9063 28.0312 29.9063 27.2812 29.5313C27.9375 30.0938 28.6875 30 29.0625 29.8125C29.4375 29.5312 29.4375 29.4375 29.3437 29.4375Z" fill="#85340A"/>
</svg>
