<svg width="167" height="50" viewBox="0 0 167 50" fill="none" xmlns="http://www.w3.org/2000/svg">
<rect width="167" height="50" rx="6" fill="white"/>
<path fill-rule="evenodd" clip-rule="evenodd" d="M82.2097 17.9998H81.2697V10.7598H82.2097V17.9998ZM54.8999 17.9998H57.3599C58.3132 17.9998 59.1166 17.6881 59.7699 17.0648C60.4232 16.4414 60.7499 15.5764 60.7499 14.4698C60.7499 13.3564 60.4266 12.4848 59.7799 11.8548C59.1332 11.2248 58.3332 10.9098 57.3799 10.9098H54.8999V17.9998ZM57.3299 17.1298H55.8799V11.7798H57.3499C58.0432 11.7798 58.6149 12.0131 59.0649 12.4798C59.5149 12.9464 59.7399 13.6098 59.7399 14.4698C59.7399 15.3231 59.5116 15.9798 59.0549 16.4398C58.5982 16.8998 58.0232 17.1298 57.3299 17.1298ZM62.9901 16.8599C63.2834 17.1599 63.6401 17.3099 64.0601 17.3099C64.4801 17.3099 64.8351 17.1582 65.1251 16.8549C65.4151 16.5515 65.5601 16.1299 65.5601 15.5899C65.5601 15.0565 65.4151 14.6382 65.1251 14.3349C64.8351 14.0315 64.4801 13.8799 64.0601 13.8799C63.6401 13.8799 63.2851 14.0315 62.9951 14.3349C62.7051 14.6382 62.5601 15.0565 62.5601 15.5899C62.5601 16.1299 62.7034 16.5532 62.9901 16.8599ZM64.0596 13.0396C63.3463 13.0396 62.7563 13.2829 62.2896 13.7696C61.8296 14.2496 61.5996 14.8562 61.5996 15.5896C61.5996 16.3296 61.8296 16.9412 62.2896 17.4246C62.7496 17.9079 63.3396 18.1496 64.0596 18.1496C64.7796 18.1496 65.3696 17.9079 65.8296 17.4246C66.2896 16.9412 66.5196 16.3296 66.5196 15.5896C66.5196 14.8562 66.2879 14.2479 65.8246 13.7646C65.3613 13.2812 64.7729 13.0396 64.0596 13.0396ZM70.4298 13.1899H71.3998L72.6498 16.8099L73.7098 13.1899H74.6998L73.1398 17.9999H72.1698L70.8898 14.3399L69.6398 17.9999H68.6498L67.0698 13.1899H68.0998L69.1798 16.8099L70.4298 13.1899ZM76.5899 17.9998V15.2198C76.5899 14.8398 76.6882 14.5248 76.8849 14.2748C77.0816 14.0248 77.3566 13.8998 77.7099 13.8998C78.4566 13.8998 78.8299 14.3031 78.8299 15.1098V17.9998H79.7699V14.9498C79.7699 14.3898 79.6216 13.9331 79.3249 13.5798C79.0282 13.2264 78.6032 13.0498 78.0499 13.0498C77.3832 13.0498 76.8899 13.3264 76.5699 13.8798V13.1898H75.6499V17.9998H76.5899ZM85.8701 17.3099C85.4501 17.3099 85.0935 17.1599 84.8001 16.8599C84.5134 16.5532 84.3701 16.1299 84.3701 15.5899C84.3701 15.0565 84.5151 14.6382 84.8051 14.3349C85.0951 14.0315 85.4501 13.8799 85.8701 13.8799C86.2901 13.8799 86.6451 14.0315 86.9351 14.3349C87.2251 14.6382 87.3701 15.0565 87.3701 15.5899C87.3701 16.1299 87.2251 16.5515 86.9351 16.8549C86.6451 17.1582 86.2901 17.3099 85.8701 17.3099ZM84.1002 13.7696C84.5668 13.2829 85.1568 13.0396 85.8702 13.0396C86.5835 13.0396 87.1718 13.2812 87.6352 13.7646C88.0985 14.2479 88.3302 14.8562 88.3302 15.5896C88.3302 16.3296 88.1002 16.9412 87.6402 17.4246C87.1802 17.9079 86.5902 18.1496 85.8702 18.1496C85.1502 18.1496 84.5602 17.9079 84.1002 17.4246C83.6402 16.9412 83.4102 16.3296 83.4102 15.5896C83.4102 14.8562 83.6402 14.2496 84.1002 13.7696ZM89.63 15.7146C89.3633 15.9646 89.23 16.2962 89.23 16.7096C89.23 17.1029 89.38 17.4412 89.68 17.7246C89.98 18.0079 90.3666 18.1496 90.84 18.1496C91.2267 18.1496 91.5483 18.0696 91.805 17.9096C92.0616 17.7495 92.2566 17.5629 92.39 17.3496C92.39 17.5829 92.4066 17.7996 92.44 17.9996H93.36C93.32 17.7595 93.3 17.4962 93.3 17.2096V14.7996C93.3 14.2862 93.1367 13.8646 92.81 13.5346C92.4833 13.2045 91.98 13.0396 91.3 13.0396C90.78 13.0396 90.3333 13.1845 89.96 13.4746C89.5866 13.7646 89.3766 14.1395 89.33 14.5996L90.23 14.8096C90.2633 14.5162 90.3733 14.2812 90.56 14.1046C90.7466 13.9279 91 13.8396 91.32 13.8396C91.6666 13.8396 91.9266 13.9195 92.1 14.0796C92.2733 14.2396 92.36 14.4462 92.36 14.6996C92.36 14.9062 92.2366 15.0262 91.99 15.0596L90.69 15.2496C90.25 15.3096 89.8966 15.4645 89.63 15.7146ZM90.9699 17.3598C91.3899 17.3598 91.7266 17.2464 91.9799 17.0198C92.2332 16.7931 92.3599 16.4331 92.3599 15.9398V15.7198L90.8899 15.9398C90.6766 15.9731 90.5066 16.0498 90.3799 16.1698C90.2532 16.2898 90.1899 16.4531 90.1899 16.6598C90.1899 16.8464 90.2616 17.0098 90.4049 17.1498C90.5482 17.2898 90.7366 17.3598 90.9699 17.3598ZM95.6948 16.8196C95.4448 16.4996 95.3198 16.0863 95.3198 15.5796C95.3198 15.0796 95.4498 14.673 95.7098 14.3596C95.9698 14.0463 96.3132 13.8896 96.7398 13.8896C97.1665 13.8896 97.5032 14.043 97.7498 14.3496C97.9965 14.6563 98.1198 15.0596 98.1198 15.5596C98.1198 16.0663 97.9932 16.483 97.7398 16.8096C97.4865 17.1363 97.1498 17.2996 96.7298 17.2996C96.2898 17.2996 95.9448 17.1397 95.6948 16.8196ZM98.133 17.5291L98.1299 17.2698C98.0032 17.5164 97.8116 17.7214 97.5549 17.8848C97.2982 18.0481 96.9932 18.1298 96.6399 18.1298C95.9532 18.1298 95.4016 17.8881 94.9849 17.4048C94.5682 16.9214 94.3599 16.3131 94.3599 15.5798C94.3599 14.8798 94.5732 14.2848 94.9999 13.7948C95.4266 13.3048 95.9732 13.0598 96.6399 13.0598C97.0332 13.0598 97.3532 13.1381 97.5999 13.2948C97.8466 13.4514 98.0166 13.6431 98.1099 13.8698V10.7598H99.0399V17.1098C99.0399 17.4364 99.0566 17.7331 99.0899 17.9998H98.1799C98.1549 17.8598 98.1393 17.7029 98.133 17.5291ZM105.2 17.3099C104.78 17.3099 104.424 17.1599 104.13 16.8599C103.844 16.5532 103.7 16.1299 103.7 15.5899C103.7 15.0565 103.845 14.6382 104.135 14.3349C104.425 14.0315 104.78 13.8799 105.2 13.8799C105.62 13.8799 105.975 14.0315 106.265 14.3349C106.555 14.6382 106.7 15.0565 106.7 15.5899C106.7 16.1299 106.555 16.5515 106.265 16.8549C105.975 17.1582 105.62 17.3099 105.2 17.3099ZM103.43 13.7696C103.896 13.2829 104.486 13.0396 105.2 13.0396C105.913 13.0396 106.501 13.2812 106.965 13.7646C107.428 14.2479 107.66 14.8562 107.66 15.5896C107.66 16.3296 107.43 16.9412 106.97 17.4246C106.51 17.9079 105.92 18.1496 105.2 18.1496C104.48 18.1496 103.89 17.9079 103.43 17.4246C102.97 16.9412 102.74 16.3296 102.74 15.5896C102.74 14.8562 102.97 14.2496 103.43 13.7696ZM109.8 17.9998V15.2198C109.8 14.8398 109.898 14.5248 110.095 14.2748C110.292 14.0248 110.567 13.8998 110.92 13.8998C111.667 13.8998 112.04 14.3031 112.04 15.1098V17.9998H112.98V14.9498C112.98 14.3898 112.832 13.9331 112.535 13.5798C112.238 13.2264 111.813 13.0498 111.26 13.0498C110.593 13.0498 110.1 13.3264 109.78 13.8798V13.1898H108.86V17.9998H109.8ZM118.24 11.6699V13.1899H119.28V14.0399H118.24V16.5399C118.24 16.7666 118.292 16.9333 118.395 17.0399C118.498 17.1466 118.67 17.1999 118.91 17.1999C119.05 17.1999 119.173 17.1866 119.28 17.1599V17.9599C119.12 18.0199 118.907 18.0499 118.64 18.0499C118.227 18.0499 117.9 17.9299 117.66 17.6899C117.42 17.4499 117.3 17.1133 117.3 16.6799V14.0399H116.38V13.1899H116.64C116.887 13.1899 117.072 13.1216 117.195 12.9849C117.318 12.8483 117.38 12.6699 117.38 12.4499V11.6699H118.24ZM121.47 17.9998V15.1698C121.483 14.7964 121.586 14.4914 121.78 14.2548C121.973 14.0181 122.243 13.8998 122.59 13.8998C123.336 13.8998 123.71 14.3031 123.71 15.1098V17.9998H124.65V14.9498C124.65 14.3898 124.501 13.9331 124.205 13.5798C123.908 13.2264 123.483 13.0498 122.93 13.0498C122.276 13.0498 121.79 13.2831 121.47 13.7498V10.7598H120.53V17.9998H121.47ZM126.76 15.0996H129.39C129.376 14.7396 129.256 14.4446 129.03 14.2146C128.803 13.9846 128.483 13.8696 128.07 13.8696C127.696 13.8696 127.39 13.9913 127.15 14.2346C126.91 14.478 126.78 14.7663 126.76 15.0996ZM130.34 16.6296L129.53 16.3496C129.316 16.9962 128.866 17.3196 128.18 17.3196C127.773 17.3196 127.431 17.1829 127.155 16.9096C126.878 16.6362 126.736 16.2862 126.73 15.8596H130.35C130.363 15.7796 130.37 15.6796 130.37 15.5596C130.37 14.7929 130.166 14.1812 129.76 13.7246C129.353 13.2679 128.786 13.0396 128.06 13.0396C127.433 13.0396 126.893 13.2795 126.44 13.7596C125.986 14.2396 125.76 14.8462 125.76 15.5796C125.76 16.3662 125.995 16.9912 126.465 17.4546C126.935 17.9179 127.506 18.1496 128.18 18.1496C128.72 18.1496 129.18 18.0079 129.56 17.7246C129.94 17.4412 130.2 17.0762 130.34 16.6296Z" fill="black"/>
<path fill-rule="evenodd" clip-rule="evenodd" d="M63.1202 37.0002H65.2162L60.8002 25.6562H58.5762L54.1602 37.0002H56.1922L57.2482 34.1523H62.0482L63.1202 37.0002ZM59.6479 27.7358L61.3759 32.3758H57.9199L59.6479 27.7358ZM68.4162 40.0402V36.1202C68.8162 36.7122 69.6642 37.1922 70.7842 37.1922C73.0242 37.1922 74.4482 35.4322 74.4482 33.0962C74.4482 30.7922 73.1522 29.0322 70.8482 29.0322C69.6482 29.0322 68.7522 29.5922 68.3682 30.2642V29.2082H66.5762V40.0402H68.4162ZM72.5924 33.0962C72.5924 34.5842 71.7284 35.5442 70.4964 35.5442C69.2804 35.5442 68.4004 34.5842 68.4004 33.0962C68.4004 31.6402 69.2804 30.6802 70.4964 30.6802C71.7444 30.6802 72.5924 31.6402 72.5924 33.0962ZM78.0802 40.0402V36.1202C78.4802 36.7122 79.3282 37.1922 80.4482 37.1922C82.6882 37.1922 84.1122 35.4322 84.1122 33.0962C84.1122 30.7922 82.8162 29.0322 80.5122 29.0322C79.3122 29.0322 78.4162 29.5922 78.0322 30.2642V29.2082H76.2402V40.0402H78.0802ZM82.2565 33.0962C82.2565 34.5842 81.3925 35.5442 80.1605 35.5442C78.9445 35.5442 78.0645 34.5842 78.0645 33.0962C78.0645 31.6402 78.9445 30.6802 80.1605 30.6802C81.4085 30.6802 82.2565 31.6402 82.2565 33.0962ZM97.4883 28.312C97.2323 27.048 96.1923 25.416 93.5203 25.416C91.4083 25.416 89.6643 26.984 89.6643 28.888C89.6643 30.584 90.8163 31.72 92.5443 32.072L94.1443 32.408C95.1203 32.616 95.6643 33.208 95.6643 33.944C95.6643 34.824 94.9603 35.512 93.6003 35.512C91.9683 35.512 91.1203 34.424 91.0083 33.24L89.2163 33.752C89.3923 35.384 90.7203 37.24 93.6003 37.24C96.1923 37.24 97.6163 35.56 97.6163 33.8C97.6163 32.2 96.5443 30.936 94.5443 30.536L92.9123 30.2C92.0323 30.008 91.5843 29.464 91.5843 28.744C91.5843 27.88 92.3843 27.112 93.5363 27.112C95.0563 27.112 95.6483 28.152 95.7603 28.856L97.4883 28.312ZM101.808 26.8242H100.128V27.9922C100.128 28.6802 99.7603 29.2082 98.9283 29.2082H98.5283V30.8562H99.9683V34.7762C99.9683 36.2322 100.864 37.0962 102.304 37.0962C102.976 37.0962 103.328 36.9682 103.44 36.9202V35.3842L103.235 35.4161C103.109 35.4325 102.947 35.4482 102.8 35.4482C102.112 35.4482 101.808 35.1602 101.808 34.4722V30.8562H103.424V29.2082H101.808V26.8242ZM108.72 35.5759C107.584 35.5759 106.544 34.7119 106.544 33.0959C106.544 31.4799 107.584 30.6479 108.72 30.6479C109.872 30.6479 110.896 31.4799 110.896 33.0959C110.896 34.7279 109.872 35.5759 108.72 35.5759ZM108.72 28.9678C106.4 28.9678 104.688 30.7118 104.688 33.0958C104.688 35.4958 106.4 37.2398 108.72 37.2398C111.056 37.2398 112.768 35.4958 112.768 33.0958C112.768 30.7118 111.056 28.9678 108.72 28.9678ZM119.12 29.1598C119.04 29.1438 118.848 29.1118 118.624 29.1118C117.6 29.1118 116.736 29.6078 116.368 30.4558V29.2078H114.56V36.9998H116.416V33.2878C116.416 31.8318 117.072 30.9998 118.512 30.9998C118.704 30.9998 118.912 31.0158 119.12 31.0478V29.1598ZM121.936 32.248C122 31.416 122.672 30.52 123.84 30.52C125.12 30.52 125.728 31.336 125.76 32.248H121.936ZM125.968 34.2798L127.536 34.7758C127.12 36.1358 125.888 37.2398 124.016 37.2398C121.904 37.2398 120.032 35.7038 120.032 33.0638C120.032 30.5998 121.856 28.9678 123.824 28.9678C126.224 28.9678 127.632 30.5518 127.632 33.0158C127.632 33.3198 127.6 33.5758 127.584 33.6078H121.888C121.936 34.7918 122.864 35.6398 124.016 35.6398C125.136 35.6398 125.712 35.0478 125.968 34.2798Z" fill="black"/>
<path fill-rule="evenodd" clip-rule="evenodd" d="M31.3938 14.5376C32.263 13.6005 32.8511 12.2986 32.6906 11C31.4371 11.0451 29.9185 11.7405 29.0204 12.6773C28.2133 13.5075 27.5079 14.8334 27.6963 16.1059C29.0955 16.2022 30.5228 15.4737 31.3938 14.5376ZM34.0616 23.5021C34.0346 20.5913 36.3495 19.1945 36.4534 19.1259C35.1524 17.1503 33.125 16.8796 32.4037 16.8494C30.6791 16.667 29.0385 17.9021 28.1625 17.9021C27.2897 17.9021 25.9395 16.8738 24.5086 16.901C22.628 16.9319 20.8947 18.0351 19.9278 19.7835C17.974 23.3001 19.4266 28.511 21.3313 31.363C22.2618 32.7598 23.3706 34.3262 24.8264 34.2692C26.2303 34.2132 26.7604 33.3281 28.4561 33.3281C30.1509 33.3281 30.6278 34.2692 32.1111 34.2408C33.6204 34.2132 34.5769 32.8175 35.5009 31.4172C36.5685 29.7984 37.008 28.2302 37.0347 28.1506C37.0008 28.1331 34.0923 26.9791 34.0616 23.5021Z" fill="black"/>
</svg>
