<svg width="167" height="50" viewBox="0 0 167 50" fill="none" xmlns="http://www.w3.org/2000/svg">
<rect width="167" height="50" rx="6" fill="white"/>
<path fill-rule="evenodd" clip-rule="evenodd" d="M73.71 12.3699C73.71 12.5566 73.7733 12.7166 73.9 12.8499C74.0333 12.9766 74.1933 13.0399 74.38 13.0399C74.5666 13.0399 74.7266 12.9749 74.86 12.8449C74.9933 12.7149 75.06 12.5566 75.06 12.3699C75.06 12.1766 74.9933 12.0149 74.86 11.8849C74.7266 11.7549 74.5666 11.6899 74.38 11.6899C74.1933 11.6899 74.035 11.7566 73.905 11.8899C73.775 12.0233 73.71 12.1833 73.71 12.3699ZM60.2502 18.9998H61.0402V15.5298H57.6502V16.4098H60.1102C60.0969 16.6098 60.0485 16.8098 59.9652 17.0098C59.8819 17.2098 59.7585 17.4081 59.5952 17.6048C59.4319 17.8014 59.2052 17.9598 58.9152 18.0798C58.6252 18.1998 58.2935 18.2598 57.9202 18.2598C57.2402 18.2598 56.6585 18.0148 56.1752 17.5248C55.6919 17.0348 55.4502 16.3431 55.4502 15.4498C55.4502 14.5631 55.6969 13.8764 56.1902 13.3898C56.6835 12.9031 57.2735 12.6598 57.9602 12.6598C58.5069 12.6598 58.9785 12.8014 59.3752 13.0848C59.7719 13.3681 60.0502 13.7664 60.2102 14.2798L61.1002 13.8998C60.8935 13.2531 60.5085 12.7348 59.9452 12.3448C59.3819 11.9548 58.7202 11.7598 57.9602 11.7598C57.3602 11.7598 56.7985 11.8964 56.2752 12.1698C55.7519 12.4431 55.3169 12.8664 54.9702 13.4398C54.6235 14.0131 54.4502 14.6831 54.4502 15.4498C54.4502 16.2164 54.6152 16.8864 54.9452 17.4598C55.2752 18.0331 55.6969 18.4581 56.2102 18.7348C56.7235 19.0114 57.2835 19.1498 57.8902 19.1498C58.4435 19.1498 58.9169 19.0364 59.3102 18.8098C59.7035 18.5831 59.9869 18.3131 60.1602 17.9998L60.2502 18.9998ZM65.6901 16.1001H63.0601C63.0801 15.7668 63.2101 15.4785 63.4501 15.2351C63.6901 14.9918 63.9967 14.8701 64.3701 14.8701C64.7834 14.8701 65.1034 14.9851 65.3301 15.2151C65.5567 15.4451 65.6767 15.7401 65.6901 16.1001ZM65.8301 17.35L66.6401 17.63C66.5001 18.0767 66.2401 18.4417 65.8601 18.725C65.4801 19.0084 65.0201 19.15 64.4801 19.15C63.8067 19.15 63.2351 18.9184 62.7651 18.455C62.2951 17.9917 62.0601 17.3667 62.0601 16.58C62.0601 15.8467 62.2867 15.24 62.7401 14.76C63.1934 14.28 63.7334 14.04 64.3601 14.04C65.0867 14.04 65.6534 14.2684 66.0601 14.725C66.4667 15.1817 66.6701 15.7934 66.6701 16.56C66.6701 16.68 66.6634 16.78 66.6501 16.86H63.0301C63.0367 17.2867 63.1784 17.6367 63.4551 17.91C63.7317 18.1834 64.0734 18.32 64.4801 18.32C65.1667 18.32 65.6167 17.9967 65.8301 17.35ZM69.13 14.1899V12.6699H68.27V13.4499C68.27 13.6699 68.2084 13.8483 68.085 13.9849C67.9617 14.1216 67.7767 14.1899 67.53 14.1899H67.27V15.0399H68.19V17.6799C68.19 18.1133 68.31 18.4499 68.55 18.6899C68.79 18.9299 69.1167 19.0499 69.53 19.0499C69.7967 19.0499 70.01 19.0199 70.17 18.9599V18.1599C70.0634 18.1866 69.94 18.1999 69.8 18.1999C69.56 18.1999 69.3884 18.1466 69.285 18.0399C69.1817 17.9333 69.13 17.7666 69.13 17.5399V15.0399H70.17V14.1899H69.13ZM74.8502 18.9999H73.9202V14.1899H74.8502V18.9999ZM77.7102 12.6699V14.1899H78.7502V15.0399H77.7102V17.5399C77.7102 17.7666 77.7619 17.9333 77.8652 18.0399C77.9685 18.1466 78.1402 18.1999 78.3802 18.1999C78.5202 18.1999 78.6435 18.1866 78.7502 18.1599V18.9599C78.5902 19.0199 78.3769 19.0499 78.1102 19.0499C77.6969 19.0499 77.3702 18.9299 77.1302 18.6899C76.8902 18.4499 76.7702 18.1133 76.7702 17.6799V15.0399H75.8502V14.1899H76.1102C76.3569 14.1899 76.5419 14.1216 76.6652 13.9849C76.7885 13.8483 76.8502 13.6699 76.8502 13.4499V12.6699H77.7102ZM84.5601 18.3099C84.1401 18.3099 83.7834 18.1599 83.4901 17.8599C83.2034 17.5532 83.0601 17.1299 83.0601 16.5899C83.0601 16.0565 83.2051 15.6382 83.4951 15.3349C83.7851 15.0315 84.1401 14.8799 84.5601 14.8799C84.9801 14.8799 85.3351 15.0315 85.6251 15.3349C85.9151 15.6382 86.0601 16.0565 86.0601 16.5899C86.0601 17.1299 85.9151 17.5515 85.6251 17.8549C85.3351 18.1582 84.9801 18.3099 84.5601 18.3099ZM82.7902 14.7699C83.2569 14.2833 83.8469 14.0399 84.5602 14.0399C85.2735 14.0399 85.8619 14.2816 86.3252 14.7649C86.7885 15.2483 87.0202 15.8566 87.0202 16.5899C87.0202 17.3299 86.7902 17.9416 86.3302 18.4249C85.8702 18.9083 85.2802 19.1499 84.5602 19.1499C83.8402 19.1499 83.2502 18.9083 82.7902 18.4249C82.3302 17.9416 82.1002 17.3299 82.1002 16.5899C82.1002 15.8566 82.3302 15.2499 82.7902 14.7699ZM89.1602 18.9998V16.2198C89.1602 15.8398 89.2585 15.5248 89.4552 15.2748C89.6519 15.0248 89.9269 14.8998 90.2802 14.8998C91.0269 14.8998 91.4002 15.3031 91.4002 16.1098V18.9998H92.3402V15.9498C92.3402 15.3898 92.1919 14.9331 91.8952 14.5798C91.5985 14.2265 91.1735 14.0498 90.6202 14.0498C89.9535 14.0498 89.4602 14.3265 89.1402 14.8798V14.1898H88.2202V18.9998H89.1602Z" fill="#0A142F"/>
<path fill-rule="evenodd" clip-rule="evenodd" d="M65.4239 30.256V36H63.8719L63.7279 34.56C63.2319 35.392 62.0639 36.24 60.2559 36.24C57.2959 36.24 54.6719 34.064 54.6719 30.32C54.6719 26.592 57.4399 24.416 60.3839 24.416C63.1359 24.416 64.8959 26 65.5039 27.872L63.6959 28.56C63.3119 27.28 62.1919 26.192 60.3839 26.192C58.5439 26.192 56.6239 27.504 56.6239 30.32C56.6239 33.088 58.4159 34.48 60.3679 34.48C62.6559 34.48 63.5199 32.912 63.6159 31.936H59.8719V30.256H65.4239ZM68.832 32.0959C68.832 33.7119 69.872 34.5759 71.008 34.5759C72.16 34.5759 73.184 33.7279 73.184 32.0959C73.184 30.4799 72.16 29.6479 71.008 29.6479C69.872 29.6479 68.832 30.4799 68.832 32.0959ZM71.0076 27.9678C68.6876 27.9678 66.9756 29.7118 66.9756 32.0958C66.9756 34.4958 68.6876 36.2398 71.0076 36.2398C73.3436 36.2398 75.0556 34.4958 75.0556 32.0958C75.0556 29.7118 73.3436 27.9678 71.0076 27.9678ZM78.0957 32.0959C78.0957 33.7119 79.1357 34.5759 80.2717 34.5759C81.4237 34.5759 82.4477 33.7279 82.4477 32.0959C82.4477 30.4799 81.4237 29.6479 80.2717 29.6479C79.1357 29.6479 78.0957 30.4799 78.0957 32.0959ZM80.2717 27.9678C77.9517 27.9678 76.2397 29.7118 76.2397 32.0958C76.2397 34.4958 77.9517 36.2398 80.2717 36.2398C82.6077 36.2398 84.3197 34.4958 84.3197 32.0958C84.3197 29.7118 82.6077 27.9678 80.2717 27.9678ZM89.2638 39.28C87.1998 39.28 85.7598 38 85.5518 36.432L87.2638 35.984C87.3918 36.944 88.1438 37.664 89.2158 37.664C90.6878 37.664 91.4238 36.912 91.4238 35.328V34.512C91.0878 35.12 90.3038 35.648 89.1678 35.648C87.0878 35.648 85.5678 34.048 85.5678 31.856C85.5678 29.776 87.0238 28.064 89.1678 28.064C90.3838 28.064 91.1358 28.56 91.4718 29.2V28.208H93.2638V35.264C93.2638 37.344 92.1918 39.28 89.2638 39.28ZM89.4719 34.064C88.2559 34.064 87.4399 33.216 87.4399 31.856C87.4399 30.528 88.2879 29.664 89.4719 29.664C90.6239 29.664 91.4719 30.528 91.4719 31.856C91.4719 33.2 90.6559 34.064 89.4719 34.064ZM97.3916 24.416V36H95.5356V24.416H97.3916ZM101.088 31.248C101.152 30.416 101.824 29.52 102.992 29.52C104.272 29.52 104.88 30.336 104.912 31.248H101.088ZM103.168 34.6398C104.288 34.6398 104.864 34.0478 105.12 33.2798L106.688 33.7758C106.272 35.1358 105.04 36.2398 103.168 36.2398C101.056 36.2398 99.1836 34.7038 99.1836 32.0638C99.1836 29.5998 101.008 27.9678 102.976 27.9678C105.376 27.9678 106.784 29.5518 106.784 32.0158C106.784 32.3198 106.752 32.5758 106.736 32.6078H101.04C101.088 33.7918 102.016 34.6398 103.168 34.6398ZM114.608 29.872V26.352H116.608C117.824 26.352 118.56 27.04 118.56 28.128C118.56 29.2 117.824 29.872 116.608 29.872H114.608ZM120.512 28.1123C120.512 30.1123 119.072 31.5683 116.896 31.5683H114.608V36.0002H112.688V24.6562H116.896C119.072 24.6562 120.512 26.1283 120.512 28.1123ZM124.016 36V24.416H122.16V36H124.016ZM128.576 36.2398C126.944 36.2398 125.936 35.1198 125.936 33.8878C125.936 32.4958 126.96 31.7278 128.288 31.5358L130.288 31.2318C130.736 31.1678 130.864 30.9438 130.864 30.6718C130.864 30.0158 130.416 29.4878 129.392 29.4878C128.416 29.4878 127.872 30.1118 127.792 30.8958L126.096 30.5118C126.24 29.1678 127.456 27.9678 129.376 27.9678C131.776 27.9678 132.688 29.3278 132.688 30.8798L132.69 34.9227C132.697 35.3094 132.727 35.6104 132.752 35.7971L132.784 35.9998H131.056C131.04 35.9518 130.976 35.6318 130.976 35.0078C130.608 35.5998 129.84 36.2398 128.576 36.2398ZM128.928 34.784C128.192 34.784 127.792 34.304 127.792 33.776C127.792 33.136 128.256 32.816 128.832 32.72L130.864 32.416V32.768C130.864 34.288 129.968 34.784 128.928 34.784ZM135.312 39.152H137.296L142.256 28.208H140.288L138.192 33.136L135.952 28.208H133.856L137.184 35.072L135.312 39.152Z" fill="#0A142F"/>
<path d="M20.0958 14.1293C20.0395 14.3299 20 14.5451 20 14.7919V35.1064C20 35.3498 20.038 35.5639 20.0932 35.7619L31.4206 24.96L20.0958 14.1293Z" fill="#48A0DC"/>
<path d="M22.6163 13.3403C22.089 13.0167 21.5693 12.9357 21.1304 13.0474L32.5051 23.9262L35.8417 20.7451L22.6163 13.3403Z" fill="#88C057"/>
<path d="M40.7172 23.4752L37.1867 21.4985L33.5713 24.9463L37.2546 28.4698L40.69 26.5712C42.3653 25.61 41.7534 24.0613 40.7172 23.4752Z" fill="#FFCC66"/>
<path d="M32.4866 25.9795L21.0977 36.8387C21.5432 36.9644 22.075 36.8897 22.6157 36.5579L35.8824 29.227L32.4866 25.9795Z" fill="#ED7161"/>
</svg>
