<svg width="16" height="15" viewBox="0 0 16 15" fill="none" xmlns="http://www.w3.org/2000/svg">
<path d="M15.8548 2.34037C15.7503 2.22236 15.582 2.19268 15.4439 2.26547C15.358 2.31069 15.1966 2.37005 15.0049 2.4287C15.2468 2.09799 15.4412 1.72772 15.5271 1.39489C15.5642 1.25144 15.5099 1.10022 15.3917 1.01472C15.2735 0.92992 15.1162 0.92992 14.9981 1.01472C14.8119 1.14827 13.9133 1.54964 13.3451 1.67966C12.0611 0.522896 10.5668 0.402767 9.01351 1.33553C7.75079 2.09375 7.47599 3.63564 7.52957 4.57547C4.63932 4.28928 2.84279 2.71913 1.83151 1.41962C1.76075 1.32846 1.64671 1.28041 1.53953 1.28748C1.42686 1.29596 1.32519 1.36026 1.26748 1.4599C0.789319 2.2902 0.656726 3.20812 0.8855 4.11474C1.01054 4.60939 1.22901 5.04539 1.48251 5.39871C1.36091 5.33723 1.24343 5.2602 1.13282 5.16834C1.03115 5.08213 0.888935 5.06588 0.768709 5.12312C0.649169 5.18177 0.572911 5.30614 0.572911 5.44252C0.572911 6.99924 1.51961 8.038 2.40379 8.5807C2.26089 8.56303 2.11181 8.53053 1.96136 8.48318C1.8322 8.44291 1.69205 8.48318 1.60274 8.58777C1.51343 8.69164 1.49213 8.84004 1.54778 8.96653C2.04449 10.0964 2.98569 10.8737 4.15017 11.1557C3.1334 11.7698 1.77243 12.0708 0.526194 11.9231C0.364747 11.8998 0.210857 12.0051 0.160018 12.1648C0.109179 12.3245 0.175819 12.4997 0.31803 12.5817C2.20868 13.6734 3.91796 14.0635 5.39503 14.0635C7.54469 14.0635 9.20382 13.2382 10.2137 12.5478C12.9363 10.6893 14.6333 7.35256 14.3969 4.36701C14.8332 4.0356 15.4858 3.42365 15.8905 2.76577C15.9743 2.63292 15.9592 2.45767 15.8548 2.34037Z" fill="white"/>
</svg>
