<svg width="16" height="11" viewBox="0 0 16 11" fill="none" xmlns="http://www.w3.org/2000/svg">
<path fill-rule="evenodd" clip-rule="evenodd" d="M14.2659 0.343191C14.951 0.524535 15.4906 1.05601 15.6745 1.72957C16.0159 2.95895 15.9999 5.5221 15.9999 5.5221C15.9999 5.5221 15.9975 8.07113 15.6665 9.29972C15.4803 9.9725 14.9382 10.5032 14.2539 10.6837C13.002 11.0056 7.99355 11.0001 7.99355 11.0001C7.99355 11.0001 2.99868 10.9946 1.73397 10.6571C1.04806 10.4757 0.508442 9.94424 0.324572 9.27146C-0.00319657 8.05464 0 5.49227 0 5.49227C0 5.49227 0.00319892 2.94246 0.333365 1.71309C0.518834 1.04031 1.07364 0.497059 1.74517 0.317284C2.99788 -0.00536725 8.00554 0.000128033 8.00554 0.000128033C8.00554 0.000128033 13.014 0.00562334 14.2659 0.343191ZM6.40732 3.14465L6.40332 7.8549L10.57 5.5037L6.40732 3.14465Z" fill="white"/>
</svg>
