<svg width="45" height="45" viewBox="0 0 45 45" fill="none" xmlns="http://www.w3.org/2000/svg">
<path fill-rule="evenodd" clip-rule="evenodd" d="M22.5 45C34.9264 45 45 34.9264 45 22.5C45 10.0736 34.9264 0 22.5 0C10.0736 0 0 10.0736 0 22.5C0 34.9264 10.0736 45 22.5 45Z" fill="#302A78"/>
<path d="M29.8548 18.3404C29.7503 18.2224 29.582 18.1927 29.4439 18.2655C29.358 18.3107 29.1966 18.3701 29.0049 18.4287C29.2468 18.098 29.4412 17.7277 29.5271 17.3949C29.5642 17.2514 29.5099 17.1002 29.3917 17.0147C29.2735 16.9299 29.1162 16.9299 28.9981 17.0147C28.8119 17.1483 27.9133 17.5496 27.3451 17.6797C26.0611 16.5229 24.5668 16.4028 23.0135 17.3355C21.7508 18.0938 21.476 19.6356 21.5296 20.5755C18.6393 20.2893 16.8428 18.7191 15.8315 17.4196C15.7608 17.3285 15.6467 17.2804 15.5395 17.2875C15.4269 17.296 15.3252 17.3603 15.2675 17.4599C14.7893 18.2902 14.6567 19.2081 14.8855 20.1147C15.0105 20.6094 15.229 21.0454 15.4825 21.3987C15.3609 21.3372 15.2434 21.2602 15.1328 21.1683C15.0311 21.0821 14.8889 21.0659 14.7687 21.1231C14.6492 21.1818 14.5729 21.3061 14.5729 21.4425C14.5729 22.9992 15.5196 24.038 16.4038 24.5807C16.2609 24.563 16.1118 24.5305 15.9614 24.4832C15.8322 24.4429 15.692 24.4832 15.6027 24.5878C15.5134 24.6916 15.4921 24.84 15.5478 24.9665C16.0445 26.0964 16.9857 26.8737 18.1502 27.1557C17.1334 27.7698 15.7724 28.0708 14.5262 27.9231C14.3647 27.8998 14.2109 28.0051 14.16 28.1648C14.1092 28.3245 14.1758 28.4997 14.318 28.5817C16.2087 29.6734 17.918 30.0635 19.395 30.0635C21.5447 30.0635 23.2038 29.2382 24.2137 28.5478C26.9363 26.6893 28.6333 23.3526 28.3969 20.367C28.8332 20.0356 29.4858 19.4236 29.8905 18.7658C29.9743 18.6329 29.9592 18.4577 29.8548 18.3404Z" fill="white"/>
</svg>
