<svg width="45" height="45" viewBox="0 0 45 45" fill="none" xmlns="http://www.w3.org/2000/svg">
<path d="M22.5 45C34.9264 45 45 34.9264 45 22.5C45 10.0736 34.9264 0 22.5 0C10.0736 0 0 10.0736 0 22.5C0 34.9264 10.0736 45 22.5 45Z" fill="#302A78"/>
<path fill-rule="evenodd" clip-rule="evenodd" d="M29.2659 17.3432C29.951 17.5245 30.4906 18.056 30.6745 18.7296C31.0159 19.9589 30.9999 22.5221 30.9999 22.5221C30.9999 22.5221 30.9975 25.0711 30.6665 26.2997C30.4803 26.9725 29.9382 27.5032 29.2539 27.6837C28.002 28.0056 22.9935 28.0001 22.9935 28.0001C22.9935 28.0001 17.9987 27.9946 16.734 27.6571C16.0481 27.4757 15.5084 26.9442 15.3246 26.2715C14.9968 25.0546 15 22.4923 15 22.4923C15 22.4923 15.0032 19.9425 15.3334 18.7131C15.5188 18.0403 16.0736 17.4971 16.7452 17.3173C17.9979 16.9946 23.0055 17.0001 23.0055 17.0001C23.0055 17.0001 28.014 17.0056 29.2659 17.3432ZM21.4073 20.1447L21.4033 24.8549L25.57 22.5037L21.4073 20.1447Z" fill="white"/>
</svg>
